<svg width="71" height="75" viewBox="0 0 71 75" fill="none" xmlns="http://www.w3.org/2000/svg">
<path d="M0.695312 22V0.789062H7.3457C11.5352 0.789062 13.9375 3.54297 13.9375 7.23438C13.9375 10.8965 11.5352 13.6504 7.375 13.6504H2.21875V22H0.695312ZM2.21875 12.2734H7.31641C10.5684 12.2734 12.4141 10.1641 12.4141 7.23438C12.4141 4.27539 10.5684 2.16602 7.31641 2.16602H2.21875V12.2734ZM35.2656 11.3945C35.2656 17.9863 31.5449 22.293 26.2422 22.293C20.9102 22.293 17.1895 17.957 17.1895 11.3945C17.1895 4.80273 20.9102 0.496094 26.2422 0.496094C31.5449 0.496094 35.2656 4.80273 35.2656 11.3945ZM33.7715 11.3945C33.7715 5.56445 30.6367 1.93164 26.2422 1.93164C21.8477 1.93164 18.6836 5.53516 18.6836 11.3945C18.6836 17.1953 21.8184 20.8281 26.2422 20.8281C30.6367 20.8281 33.8008 17.2246 33.7715 11.3945ZM39.6309 22V0.789062H46.2812C50.4707 0.789062 52.873 3.33789 52.873 7.0293C52.873 9.90039 51.4229 12.0537 48.8301 12.8594L53.8105 22H52.0527L47.3066 13.1816C46.9844 13.2256 46.6475 13.2402 46.3105 13.2402H41.1543V22H39.6309ZM41.1543 11.834H46.252C49.5039 11.834 51.3496 9.95898 51.3496 7.0293C51.3496 4.09961 49.5039 2.16602 46.252 2.16602H41.1543V11.834ZM55.9492 2.16602V0.789062H71.0078V2.16602H64.2695V22H62.7168V2.16602H55.9492ZM0.695312 48V26.7891H12.707V28.166H2.21875V36.6914H11.7109V38.0684H2.21875V48H0.695312ZM34.2695 37.3945C34.2695 43.9863 30.5488 48.293 25.2461 48.293C19.9141 48.293 16.1934 43.957 16.1934 37.3945C16.1934 30.8027 19.9141 26.4961 25.2461 26.4961C30.5488 26.4961 34.2695 30.8027 34.2695 37.3945ZM32.7754 37.3945C32.7754 31.5645 29.6406 27.9316 25.2461 27.9316C20.8516 27.9316 17.6875 31.5352 17.6875 37.3945C17.6875 43.1953 20.8223 46.8281 25.2461 46.8281C29.6406 46.8281 32.8047 43.2246 32.7754 37.3945ZM38.6348 48V26.7891H40.1582V46.5938H50.4414V48H38.6348ZM56.0078 26.7891V48H54.4844V26.7891H56.0078ZM0.695312 74V52.7891H2.21875V62.6914H14.7285V52.7891H16.2812V74H14.7285V64.0684H2.21875V74H0.695312ZM38.7227 63.3945C38.7227 69.9863 35.002 74.293 29.6992 74.293C24.3672 74.293 20.6465 69.957 20.6465 63.3945C20.6465 56.8027 24.3672 52.4961 29.6992 52.4961C35.002 52.4961 38.7227 56.8027 38.7227 63.3945ZM37.2285 63.3945C37.2285 57.5645 34.0938 53.9316 29.6992 53.9316C25.3047 53.9316 22.1406 57.5352 22.1406 63.3945C22.1406 69.1953 25.2754 72.8281 29.6992 72.8281C34.0938 72.8281 37.2578 69.2246 37.2285 63.3945Z" fill="black"/>
</svg>
